<svg xmlns="http://www.w3.org/2000/svg" viewBox="0 0 438.66 331.95"><defs><style>.cls-1{fill:none;}.cls-2{fill:#002d59;}.cls-3{fill:#32b9be;}</style></defs><title>Tekengebied 1</title><g id="FORMAAT"><rect class="cls-1" x="44.74" y="44.26" width="349.66" height="221.19"/><rect class="cls-1" width="438.66" height="331.95"/></g><g id="LOGO_DESIGN" data-name="LOGO DESIGN"><path class="cls-2" d="M82.17,217.49c0-10.93-7.79-18.53-18.87-18.53-10.87,0-18.87,7.9-18.87,18.53,0,10.82,8,18.57,18.87,18.57a22.7,22.7,0,0,0,5.27-.65l5,7.85h7.8l-6.85-10.58A18.15,18.15,0,0,0,82.17,217.49ZM63.3,229.55c-7.1,0-11.87-4.86-11.87-12.06s4.87-12.07,11.87-12.07c7.15,0,11.87,4.82,11.87,12.07S70.6,229.55,63.3,229.55Zm39.93-19.07h6.65v14.16c0,7.2-4.47,11.32-12.12,11.32s-12.11-4.12-12.11-11.32V210.48H92.3v13.61c0,3.68,1.94,5.71,5.46,5.71s5.47-2,5.47-5.71Zm30.29,3.78a8.84,8.84,0,0,0-8-4.27c-7.1,0-12,5.36-12,13.06s4.87,13,11.87,13a9.09,9.09,0,0,0,8.1-4.27v3.72H140v-25h-6.45ZM126.81,230c-3.87,0-6.45-2.88-6.45-6.9s2.63-6.9,6.45-6.9a6.9,6.9,0,0,1,0,13.8Zm42.26-9.63v15.19h-6.65v-13.8c0-3.63-1.79-5.47-5-5.47a5.74,5.74,0,0,0-6.06,6.06v13.21h-6.65v-25h6.45v4a9,9,0,0,1,8.3-4.57C165.3,210,169.07,214,169.07,220.32Zm21.4,8.49,2,5.71a15.13,15.13,0,0,1-7.11,1.54c-6.5,0-9.68-3.18-9.68-9.73V216.24H171.3v-5.71h4.42v-7.59h6.66v7.59h8.49v5.71h-8.49v9.64c0,3.13,1,4.17,3.87,4.22A7.07,7.07,0,0,0,190.47,228.81Zm21.75-18.33h6.65v14.16c0,7.2-4.47,11.32-12.11,11.32s-12.12-4.12-12.12-11.32V210.48h6.65v13.61c0,3.68,1.94,5.71,5.47,5.71s5.46-2,5.46-5.71Zm51.59,9.84v15.19h-6.65v-13.8c0-3.63-1.59-5.47-4.52-5.47-3.58,0-5.51,2.49-5.51,6.06v13.21h-6.66v-13.8c0-3.63-1.59-5.47-4.47-5.47-3.62,0-5.56,2.49-5.56,6.06v13.21h-6.65v-25h6.45v4.32a8.34,8.34,0,0,1,7.85-4.86,7.85,7.85,0,0,1,7.85,5.06c1.83-3.52,4.91-5.06,8.78-5.06C260.24,210,263.81,214,263.81,220.32Zm31-20.81H281.73v36h13c11.28,0,19.47-7.55,19.47-18S306.07,199.51,294.79,199.51Zm-.05,29.5h-6.15V205.92h6.25c7.4,0,12.37,4.56,12.37,11.57S302.14,229,294.74,229Zm34.91-19c-7.75,0-13.26,5.41-13.26,12.91S321.76,236,329.25,236c5.22,0,9-1.94,11.52-6.06l-5.9-2.68c-1,1.94-2.79,2.88-5.47,2.88-3.52,0-5.66-1.74-6.25-5h18.72s.1-1,.1-2C342,215.35,337,210,329.65,210Zm-6.41,10.18c.75-3,2.93-4.57,6.36-4.57s5.61,1.84,5.86,4.57Zm22.7-21.65h6.65v36.94h-6.65Zm50.1,36a15.06,15.06,0,0,1-7.1,1.54c-6.51,0-9.68-3.18-9.68-9.73V216.24H366.44v19.27h-6.65V216.24h-4.47v-5.71h4.47v-2.68c0-6.11,3.68-9.83,9.83-9.83a11.49,11.49,0,0,1,7.25,2.33l-2.23,5.12a6.25,6.25,0,0,0-4.07-1.64c-2.68,0-4.13,1.49-4.13,4.22v2.48h12.82v-7.59h6.65v7.59h8.49v5.71h-8.49v9.64c0,3.13,1,4.17,3.87,4.22a7,7,0,0,0,4.22-1.29Z"/><path class="cls-3" d="M111.19,253.14h6.9v2.18h-4.42v2.8H118v2.17h-4.34v3h4.42v2.18h-6.9Zm18.2,9a4.88,4.88,0,1,1,0-2.42h-2.23a2.73,2.73,0,0,0-4.41-.86,3,3,0,0,0-.75,2,2.67,2.67,0,0,0,2.7,2.81,2.59,2.59,0,0,0,2.46-1.56Zm1.64-1.27a4.89,4.89,0,1,1,4.89,4.86,4.75,4.75,0,0,1-4.89-4.86Zm2.18,0a2.71,2.71,0,1,0,2.71-2.81,2.71,2.71,0,0,0-2.71,2.81ZM147,258.78c0-.48-.26-1-1.11-1a1,1,0,0,0-1.08.91c0,.59.68.9,1.54,1.15,1.47.4,3.05.83,3.06,2.8s-1.54,3.07-3.45,3.07a3.25,3.25,0,0,1-3.5-2.94h2.18A1.27,1.27,0,0,0,146,264a1.15,1.15,0,0,0,1.25-1.06c0-.78-.69-1-2.37-1.58-1.23-.39-2.22-1.07-2.24-2.38a3,3,0,0,1,3.28-2.91,3,3,0,0,1,3.24,2.74Zm7.05,6.32-3.44-8.78H153l2.23,6.07,2.19-6.07h2.33l-4.8,12.32h-2.33Zm11.28-6.32a1,1,0,0,0-1.11-1,1,1,0,0,0-1.08.91c0,.59.68.9,1.54,1.15,1.47.4,3,.83,3.06,2.8s-1.54,3.07-3.46,3.07a3.24,3.24,0,0,1-3.49-2.94H163a1.27,1.27,0,0,0,1.35,1.18,1.14,1.14,0,0,0,1.24-1.06c0-.78-.68-1-2.36-1.58C162,260.94,161,260.26,161,259a3.29,3.29,0,0,1,6.52-.17Zm5.22-.78h-1.51v-1.68h1.51v-3.18h2.18v3.18h1.57V258h-1.57v7.45h-2.18Zm6.81,3.61a2.49,2.49,0,0,0,2.64,2.26,2.37,2.37,0,0,0,2.2-1.23h2.24a5.12,5.12,0,0,1-1.85,2.3,4.51,4.51,0,0,1-2.61.79,4.85,4.85,0,0,1,0-9.69,4.67,4.67,0,0,1,3.41,1.39,5,5,0,0,1,1.35,4.18Zm5.2-1.66a2.52,2.52,0,0,0-2.59-2.07,2.47,2.47,0,0,0-2.58,2.07Zm4.39-3.63H189v1.15a3,3,0,0,1,2.66-1.43,2.93,2.93,0,0,1,2.24.93,3.85,3.85,0,0,1,.55.83,3.87,3.87,0,0,1,.67-.86,3.31,3.31,0,0,1,2.33-.9,3.35,3.35,0,0,1,2.42.91c.84.87,1,1.62,1,3.5v5h-2.18v-4.92a3.17,3.17,0,0,0-.36-1.7,1.45,1.45,0,0,0-1.43-.75,1.71,1.71,0,0,0-1.58.84,2.81,2.81,0,0,0-.32,1.53v5h-2.18v-5a3.38,3.38,0,0,0-.28-1.52,1.63,1.63,0,0,0-1.5-.85,1.71,1.71,0,0,0-1.56.85,3.23,3.23,0,0,0-.35,1.58v4.94H187ZM209.32,258h-1.13v-1.68h1.13v-.52c0-2.71,2.06-2.87,3.62-2.89v1.68c-.55,0-1.44,0-1.44,1.28v.45h1.44V258H211.5v7.45h-2.18Zm4.59,2.86a4.89,4.89,0,1,1,4.89,4.86,4.75,4.75,0,0,1-4.89-4.86Zm2.18,0a2.7,2.7,0,1,0,2.71-2.81,2.7,2.7,0,0,0-2.71,2.81Zm9.84-4.57H228v1.2a2.6,2.6,0,0,1,2.53-1.48v2.19h-.1a2,2,0,0,0-2.31,2.3v4.92h-2.18Zm12-3.18h2.18v2h-2.18Zm0,3.18h2.18v9.13h-2.18Zm4.9,0h2.05c0,.4,0,.78,0,1.21a3,3,0,0,1,2.85-1.49c3,0,3.54,2.29,3.54,3.91v5.5h-2.18V260.5c0-1.37-.45-2.42-2-2.42s-2.08,1.05-2.08,2.33v5h-2.18Zm11.13,0h2c0,.4,0,.78,0,1.21a3,3,0,0,1,2.84-1.49c3,0,3.55,2.29,3.55,3.91v5.5h-2.18V260.5c0-1.37-.45-2.42-2-2.42s-2.08,1.05-2.08,2.33v5h-2.18Zm10.64,4.54a4.89,4.89,0,1,1,4.89,4.86,4.75,4.75,0,0,1-4.89-4.86Zm2.18,0a2.71,2.71,0,1,0,2.71-2.81,2.71,2.71,0,0,0-2.71,2.81Zm14,4.56h-2.13l-3.39-9.13h2.26l2.2,6.39,2.19-6.39h2.27Zm14.19,0h-2.18v-1.31a3.41,3.41,0,0,1-3.08,1.59,4.85,4.85,0,0,1,0-9.69,3.41,3.41,0,0,1,3.08,1.61v-1.33H295Zm-7.72-4.52a2.75,2.75,0,0,0,2.78,2.78,2.6,2.6,0,0,0,2.43-1.47,3.35,3.35,0,0,0,.35-1.28,3,3,0,0,0-.25-1.28,2.69,2.69,0,0,0-2.55-1.61,2.75,2.75,0,0,0-2.76,2.84ZM298.56,258h-1.51v-1.68h1.51v-3.18h2.18v3.18h1.56V258h-1.56v7.45h-2.18Zm5.84-4.86h2.18v2H304.4Zm0,3.18h2.18v9.13H304.4Zm4.42,4.54a4.89,4.89,0,1,1,4.89,4.86,4.75,4.75,0,0,1-4.89-4.86Zm2.18,0a2.71,2.71,0,1,0,2.71-2.81,2.71,2.71,0,0,0-2.71,2.81Zm9.86-4.57h2.05c0,.4,0,.78,0,1.21a3,3,0,0,1,2.85-1.49c3,0,3.54,2.29,3.54,3.91v5.5H327.1V260.5c0-1.37-.45-2.42-2-2.42s-2.08,1.05-2.08,2.33v5h-2.18Z"/><path class="cls-2" d="M242.21,88.52v22.13a22.13,22.13,0,0,1,0,44.26H220.08V132.78H198V177h44.26a44.26,44.26,0,1,0,0-88.52Z"/><path class="cls-3" d="M175.82,88.52a22.13,22.13,0,0,1,44.26,0h22.13A44.26,44.26,0,1,0,198,132.78V110.65A22.13,22.13,0,0,1,175.82,88.52Z"/><rect class="cls-3" x="220.08" y="110.65" width="22.13" height="22.13"/><path class="cls-2" d="M198,88.52v22.13a22.35,22.35,0,0,0,22.13-22.13Z"/></g></svg>