<?xml version="1.0" standalone="no"?>
<!DOCTYPE svg PUBLIC "-//W3C//DTD SVG 20010904//EN"
 "http://www.w3.org/TR/2001/REC-SVG-20010904/DTD/svg10.dtd">
<svg version="1.0" xmlns="http://www.w3.org/2000/svg"
 width="260.000000pt" height="260.000000pt" viewBox="0 0 260.000000 260.000000"
 preserveAspectRatio="xMidYMid meet">
<metadata>
Created by potrace 1.11, written by Peter Selinger 2001-2013
</metadata>
<g transform="translate(0.000000,260.000000) scale(0.100000,-0.100000)"
fill="#000000" stroke="none">
<path d="M1135 2579 c-94 -33 -164 -85 -234 -174 -4 -6 -16 -29 -26 -53 -19
-41 -19 -42 -59 -34 -76 13 -228 8 -279 -11 -135 -49 -244 -168 -280 -308 -17
-65 -21 -215 -8 -284 8 -45 7 -51 -12 -64 -56 -39 -117 -107 -148 -164 -31
-57 -34 -71 -37 -167 -2 -58 1 -123 7 -146 16 -61 82 -155 138 -200 l50 -39
-5 -111 c-6 -134 9 -224 48 -307 39 -82 96 -147 168 -189 93 -56 123 -63 269
-63 l131 0 20 -40 c43 -88 120 -152 230 -191 53 -18 87 -23 176 -23 61 1 134
5 161 10 112 21 222 99 271 193 l28 55 96 -5 c172 -9 284 29 384 131 102 103
137 212 132 411 l-3 131 35 24 c45 31 109 110 138 173 19 42 23 65 23 159 -1
60 -4 117 -9 126 -4 9 -16 34 -26 56 -19 39 -108 138 -152 167 -21 14 -21 18
-12 68 13 68 13 182 0 251 -25 134 -120 256 -245 315 -78 38 -147 49 -281 48
l-91 -1 -16 39 c-24 54 -126 153 -189 181 -87 40 -115 46 -243 52 -72 3 -102
0 -150 -16z m-312 -757 c54 -15 900 -12 951 3 50 15 79 11 122 -16 46 -28 81
-73 95 -119 10 -34 9 -46 -6 -80 -24 -52 -83 -106 -134 -121 -44 -13 -48 -21
-26 -59 19 -33 18 -40 -1 -40 -11 0 -14 -6 -10 -17 3 -10 19 -56 34 -102 50
-146 40 -275 -34 -426 -108 -223 -330 -363 -560 -353 -71 3 -90 8 -165 45
-168 84 -275 207 -334 384 -43 127 -39 242 12 388 18 52 22 75 14 80 -8 6 -8
15 0 40 13 38 13 38 -27 44 -87 13 -174 105 -174 183 0 60 67 143 135 167 42
15 50 15 108 -1z"/>
</g>
</svg>
